<svg width="30" height="30" viewBox="0 0 30 30" fill="none" xmlns="http://www.w3.org/2000/svg">
<path opacity="0.4" d="M20.2375 2.5H9.7625C5.2125 2.5 2.5 5.2125 2.5 9.7625V20.225C2.5 24.7875 5.2125 27.5 9.7625 27.5H20.225C24.775 27.5 27.4875 24.7875 27.4875 20.2375V9.7625C27.5 5.2125 24.7875 2.5 20.2375 2.5Z" fill="#003F6B"/>
<path d="M20 14.0625H15.9375V10C15.9375 9.4875 15.5125 9.0625 15 9.0625C14.4875 9.0625 14.0625 9.4875 14.0625 10V14.0625H10C9.4875 14.0625 9.0625 14.4875 9.0625 15C9.0625 15.5125 9.4875 15.9375 10 15.9375H14.0625V20C14.0625 20.5125 14.4875 20.9375 15 20.9375C15.5125 20.9375 15.9375 20.5125 15.9375 20V15.9375H20C20.5125 15.9375 20.9375 15.5125 20.9375 15C20.9375 14.4875 20.5125 14.0625 20 14.0625Z" fill="#003F6B"/>
</svg>
